<svg width="361" height="94" viewBox="0 0 361 94" fill="none" xmlns="http://www.w3.org/2000/svg">
<path d="M48.133 29.636C48.133 33.2553 47.3023 36.578 45.641 39.604C43.9797 42.5707 41.4283 44.9737 37.987 46.813C34.5457 48.6523 30.2737 49.572 25.171 49.572H15.737V72H0.518V9.522H25.171C30.155 9.522 34.3677 10.3823 37.809 12.103C41.2503 13.8237 43.8313 16.197 45.552 19.223C47.2727 22.249 48.133 25.72 48.133 29.636ZM24.014 37.468C26.9213 37.468 29.087 36.7857 30.511 35.421C31.935 34.0563 32.647 32.128 32.647 29.636C32.647 27.144 31.935 25.2157 30.511 23.851C29.087 22.4863 26.9213 21.804 24.014 21.804H15.737V37.468H24.014ZM78.6621 72.712C73.7968 72.712 69.4061 71.6737 65.4901 69.597C61.6334 67.5203 58.5778 64.5537 56.3231 60.697C54.1278 56.8403 53.0301 52.331 53.0301 47.169C53.0301 42.0663 54.1574 37.5867 56.4121 33.73C58.6668 29.814 61.7521 26.8177 65.6681 24.741C69.5841 22.6643 73.9748 21.626 78.8401 21.626C83.7054 21.626 88.0961 22.6643 92.0121 24.741C95.9281 26.8177 99.0134 29.814 101.268 33.73C103.523 37.5867 104.65 42.0663 104.65 47.169C104.65 52.2717 103.493 56.781 101.179 60.697C98.9244 64.5537 95.8094 67.5203 91.8341 69.597C87.9181 71.6737 83.5274 72.712 78.6621 72.712ZM78.6621 59.54C81.5694 59.54 84.0318 58.472 86.0491 56.336C88.1258 54.2 89.1641 51.1443 89.1641 47.169C89.1641 43.1937 88.1554 40.138 86.1381 38.002C84.1801 35.866 81.7474 34.798 78.8401 34.798C75.8734 34.798 73.4111 35.866 71.4531 38.002C69.4951 40.0787 68.5161 43.1343 68.5161 47.169C68.5161 51.1443 69.4654 54.2 71.3641 56.336C73.3221 58.472 75.7548 59.54 78.6621 59.54ZM127.943 29.369C129.426 27.055 131.473 25.186 134.084 23.762C136.695 22.338 139.75 21.626 143.251 21.626C147.345 21.626 151.053 22.6643 154.376 24.741C157.699 26.8177 160.309 29.7843 162.208 33.641C164.166 37.4977 165.145 41.9773 165.145 47.08C165.145 52.1827 164.166 56.692 162.208 60.608C160.309 64.4647 157.699 67.461 154.376 69.597C151.053 71.6737 147.345 72.712 143.251 72.712C139.81 72.712 136.754 72 134.084 70.576C131.473 69.152 129.426 67.3127 127.943 65.058V95.674H112.724V22.338H127.943V29.369ZM149.659 47.08C149.659 43.2827 148.591 40.316 146.455 38.18C144.378 35.9847 141.797 34.887 138.712 34.887C135.686 34.887 133.105 35.9847 130.969 38.18C128.892 40.3753 127.854 43.3717 127.854 47.169C127.854 50.9663 128.892 53.9627 130.969 56.158C133.105 58.3533 135.686 59.451 138.712 59.451C141.738 59.451 144.319 58.3533 146.455 56.158C148.591 53.9033 149.659 50.8773 149.659 47.08ZM188.348 29.369C189.832 27.055 191.879 25.186 194.489 23.762C197.1 22.338 200.156 21.626 203.656 21.626C207.75 21.626 211.459 22.6643 214.781 24.741C218.104 26.8177 220.715 29.7843 222.613 33.641C224.571 37.4977 225.55 41.9773 225.55 47.08C225.55 52.1827 224.571 56.692 222.613 60.608C220.715 64.4647 218.104 67.461 214.781 69.597C211.459 71.6737 207.75 72.712 203.656 72.712C200.215 72.712 197.159 72 194.489 70.576C191.879 69.152 189.832 67.3127 188.348 65.058V95.674H173.129V22.338H188.348V29.369ZM210.064 47.08C210.064 43.2827 208.996 40.316 206.86 38.18C204.784 35.9847 202.203 34.887 199.117 34.887C196.091 34.887 193.51 35.9847 191.374 38.18C189.298 40.3753 188.259 43.3717 188.259 47.169C188.259 50.9663 189.298 53.9627 191.374 56.158C193.51 58.3533 196.091 59.451 199.117 59.451C202.143 59.451 204.724 58.3533 206.86 56.158C208.996 53.9033 210.064 50.8773 210.064 47.08ZM241.189 17.176C238.519 17.176 236.323 16.4047 234.603 14.862C232.941 13.26 232.111 11.302 232.111 8.988C232.111 6.61467 232.941 4.65666 234.603 3.114C236.323 1.512 238.519 0.710995 241.189 0.710995C243.799 0.710995 245.935 1.512 247.597 3.114C249.317 4.65666 250.178 6.61467 250.178 8.988C250.178 11.302 249.317 13.26 247.597 14.862C245.935 16.4047 243.799 17.176 241.189 17.176ZM248.754 22.338V72H233.535V22.338H248.754ZM290.043 21.804C295.857 21.804 300.485 23.7027 303.927 27.5C307.427 31.238 309.178 36.4 309.178 42.986V72H294.048V45.033C294.048 41.7103 293.187 39.1293 291.467 37.29C289.746 35.4507 287.432 34.531 284.525 34.531C281.617 34.531 279.303 35.4507 277.583 37.29C275.862 39.1293 275.002 41.7103 275.002 45.033V72H259.783V22.338H275.002V28.924C276.544 26.7287 278.621 25.008 281.232 23.762C283.842 22.4567 286.779 21.804 290.043 21.804ZM339.956 72.712C335.625 72.712 331.768 71.9703 328.386 70.487C325.004 69.0037 322.334 66.9863 320.376 64.435C318.418 61.8243 317.321 58.917 317.083 55.713H332.124C332.302 57.4337 333.103 58.828 334.527 59.896C335.951 60.964 337.702 61.498 339.778 61.498C341.677 61.498 343.131 61.142 344.139 60.43C345.207 59.6587 345.741 58.6797 345.741 57.493C345.741 56.069 345 55.0307 343.516 54.378C342.033 53.666 339.63 52.8947 336.307 52.064C332.747 51.2333 329.781 50.373 327.407 49.483C325.034 48.5337 322.987 47.08 321.266 45.122C319.546 43.1047 318.685 40.405 318.685 37.023C318.685 34.175 319.457 31.594 320.999 29.28C322.601 26.9067 324.915 25.0377 327.941 23.673C331.027 22.3083 334.676 21.626 338.888 21.626C345.118 21.626 350.013 23.1687 353.573 26.254C357.193 29.3393 359.269 33.4333 359.803 38.536H345.741C345.504 36.8153 344.733 35.4507 343.427 34.442C342.181 33.4333 340.52 32.929 338.443 32.929C336.663 32.929 335.299 33.285 334.349 33.997C333.4 34.6497 332.925 35.5693 332.925 36.756C332.925 38.18 333.667 39.248 335.15 39.96C336.693 40.672 339.066 41.384 342.27 42.096C345.949 43.0453 348.945 43.9947 351.259 44.944C353.573 45.834 355.591 47.3173 357.311 49.394C359.091 51.4113 360.011 54.1407 360.07 57.582C360.07 60.4893 359.24 63.1 357.578 65.414C355.976 67.6687 353.633 69.4487 350.547 70.754C347.521 72.0593 343.991 72.712 339.956 72.712Z" fill="black"/>
</svg>
